<?xml version="1.0" encoding="UTF-8"?>
<svg version="1.1" xmlns="http://www.w3.org/2000/svg" width="183" height="265">
<path d="M0 0 C60.39 0 120.78 0 183 0 C183 87.45 183 174.9 183 265 C122.61 265 62.22 265 0 265 C0 177.55 0 90.1 0 0 Z " fill="#FCFCFC" transform="translate(0,0)"/>
<path d="M0 0 C60.39 0 120.78 0 183 0 C183 87.45 183 174.9 183 265 C122.61 265 62.22 265 0 265 C0 177.55 0 90.1 0 0 Z M37 15 C36.84913634 16.99604223 36.77832361 18.99846503 36.75 21 C36.38634909 27.10798851 34.88731135 30.70918155 31.49609375 35.71875 C27.05443388 42.49141153 25.88789318 49.92609238 25.82591248 57.88067627 C25.81941352 58.56055155 25.81291457 59.24042682 25.80621868 59.94090438 C25.78588867 62.21221893 25.772627 64.4835159 25.75952148 66.75488281 C25.74670253 68.38631939 25.7335669 70.01775351 25.72013855 71.64918518 C25.60439972 86.521327 25.54762682 101.3941279 25.50337124 116.26663589 C25.47012212 127.25398937 25.41052551 138.24051921 25.31586021 149.22751927 C25.25148499 156.96101896 25.21782815 164.69429437 25.20662171 172.42805171 C25.19907048 177.04364364 25.17796794 181.65823892 25.12359428 186.27353668 C25.07301671 190.6176009 25.06059182 194.96014452 25.07684517 199.30445671 C25.07624335 200.89395459 25.06205707 202.48351767 25.03289795 204.07274818 C24.83753545 214.45926907 24.83753545 214.45926907 29.79212952 223.34124756 C32.93173769 226.34788476 36.31598967 228.76957294 40.140625 230.83203125 C42 232 42 232 43.60710144 234.03767395 C46.94840765 236.77775342 50.00885415 236.58337864 54.14575195 236.56518555 C54.96414551 236.5770137 55.78253906 236.58884186 56.62573242 236.60102844 C59.3301884 236.63391523 62.03363846 236.63687235 64.73828125 236.63671875 C66.62152009 236.64703437 68.50475497 236.65809755 70.38798523 236.6698761 C74.33648008 236.68931459 78.28462071 236.69272817 82.2331543 236.6862793 C87.2843286 236.68028848 92.33366176 236.72447821 97.38445759 236.78216839 C101.27511516 236.8192094 105.16533099 236.824067 109.05614281 236.81989479 C110.91764591 236.82276215 112.77916752 236.83680097 114.64049721 236.86237144 C124.47679232 237.33755187 124.47679232 237.33755187 133.59017944 234.47842407 C135.44868607 232.70241103 135.44868607 232.70241103 136.73258972 230.75862122 C138.27179686 228.62286267 139.90969825 227.65880034 142.1875 226.375 C146.24335406 223.99336477 148.8787 221.2426 151 217 C151.11378021 214.81329078 151.16160374 212.62307001 151.18081665 210.43348694 C151.19162343 209.40972644 151.19162343 209.40972644 151.20264852 208.36528391 C151.22546015 206.06653735 151.24096976 203.76780164 151.25634766 201.46899414 C151.27079389 199.82466873 151.28555151 198.18034603 151.30059814 196.536026 C151.43133405 181.46589528 151.49686008 166.39501228 151.54844093 151.3244257 C151.5872191 140.19862417 151.65531059 129.07384584 151.76298869 117.94849306 C151.83623621 110.11299359 151.87433913 102.27777082 151.88746679 94.44194311 C151.89627431 89.77109733 151.92004609 85.10151423 151.98213577 80.43104744 C152.75316515 52.86816759 152.75316515 52.86816759 142 28 C141.34 28 140.68 28 140 28 C140.02320313 27.08476562 140.04640625 26.16953125 140.0703125 25.2265625 C140.08835937 24.03804687 140.10640625 22.84953125 140.125 21.625 C140.14820313 20.44164062 140.17140625 19.25828125 140.1953125 18.0390625 C140.32866229 14.88846183 140.32866229 14.88846183 138 13 C134.87645011 12.80095729 131.84151456 12.72739137 128.71679688 12.74121094 C127.75411392 12.7377063 126.79143097 12.73420166 125.79957581 12.73059082 C122.60589463 12.72176222 119.41243357 12.72762667 116.21875 12.734375 C114.00679481 12.73302868 111.79483991 12.73108842 109.58288574 12.72857666 C104.94243559 12.72562387 100.30206232 12.72992805 95.66162109 12.73925781 C89.70256175 12.75065239 83.74368255 12.74409375 77.78462982 12.73211288 C73.21570469 12.72489849 68.64682252 12.72718028 64.07789612 12.73236847 C61.88017251 12.73370613 59.68244506 12.7320532 57.48472595 12.72740936 C54.417446 12.72235106 51.35046101 12.73004461 48.28320312 12.74121094 C47.36781265 12.73716248 46.45242218 12.73311401 45.5092926 12.72894287 C40.76958691 12.52329881 40.76958691 12.52329881 37 15 Z " fill="#FCFCFC" transform="translate(0,0)"/>
<path d="M0 0 C0.91539047 0.00404846 1.83078094 0.00809692 2.77391052 0.01226807 C4.21793495 0.00701111 4.21793495 0.00701111 5.69113159 0.00164795 C8.88481277 -0.00718065 12.07827383 -0.0013162 15.2719574 0.00543213 C17.48391258 0.0040858 19.69586748 0.00214555 21.90782166 -0.00036621 C26.54827181 -0.00331901 31.18864507 0.00098518 35.8290863 0.01031494 C41.78814565 0.02170952 47.74702485 0.01515088 53.70607758 0.00317001 C58.27500271 -0.00404438 62.84388488 -0.00176259 67.41281128 0.0034256 C69.61053488 0.00476326 71.80826234 0.00311033 74.00598145 -0.00153351 C77.07326139 -0.00659181 80.14024639 0.00110174 83.20750427 0.01226807 C84.12289474 0.0082196 85.03828522 0.00417114 85.98141479 0 C92.26217998 0.04252971 92.26217998 0.04252971 94.4907074 2.27105713 C94.6860199 5.31011963 94.6860199 5.31011963 94.6157074 8.89605713 C94.59766052 10.08457275 94.57961365 11.27308838 94.5610199 12.49761963 C94.53781677 13.412854 94.51461365 14.32808838 94.4907074 15.27105713 C95.1507074 15.27105713 95.8107074 15.27105713 96.4907074 15.27105713 C108.15893174 32.11963227 106.74571607 50.73657121 106.5349791 70.32789826 C106.49312436 75.02283494 106.50004977 79.71773835 106.50039673 84.41282654 C106.49393195 92.27778826 106.45322104 100.1419578 106.38938904 108.00665283 C106.31589835 117.08944216 106.28807121 126.17145708 106.2862404 135.25452596 C106.28399153 144.96145578 106.25127442 154.66809945 106.20822692 164.37492537 C106.19775467 167.16132567 106.19268542 169.94769341 106.18871498 172.73410988 C106.18079827 177.10692615 106.15224835 181.47914735 106.10777855 185.85173988 C106.09451964 187.45368808 106.08796303 189.05570811 106.08865356 190.65771103 C106.08837634 192.84693498 106.06345927 195.03455448 106.0322876 197.223526 C106.0242854 198.44695615 106.01628321 199.6703863 106.00803852 200.93089008 C105.22980897 205.95555723 102.85105585 209.05390325 99.1157074 212.39605713 C97.27252612 213.71261519 95.39347398 214.97968704 93.4907074 216.20855713 C90.41681775 218.12505003 90.41681775 218.12505003 88.32040405 220.85853577 C84.67440836 223.96701119 81.7955169 223.98492656 77.21556091 223.93389893 C76.39541504 223.94426682 75.57526917 223.9546347 74.73027039 223.96531677 C72.02620526 223.99236327 69.32376485 223.98273039 66.61961365 223.97027588 C64.735408 223.97618589 62.85120612 223.98343307 60.9670105 223.99195862 C57.02020183 224.00383534 53.0739572 223.99713775 49.12718201 223.97784424 C44.07494044 223.95496731 39.02438178 223.98172513 33.97230625 224.0229063 C30.0816713 224.04851115 26.19143752 224.045897 22.30074883 224.0350132 C20.43845531 224.0335284 18.57613076 224.0411947 16.71391487 224.05826378 C14.10666236 224.07828144 11.50236578 224.05981077 8.89524841 224.03155518 C7.74716957 224.05212982 7.74716957 224.05212982 6.57589722 224.07312012 C2.3632726 223.9821079 0.07128368 223.28884019 -2.81973267 220.3407135 C-3.26088944 219.81245374 -3.70204622 219.28419397 -4.15657139 218.73992634 C-5.65921044 216.95037505 -5.65921044 216.95037505 -8.9467926 215.39605713 C-13.55467733 212.82885955 -16.92966783 209.93936717 -19.5092926 205.27105713 C-20.52334759 199.90729867 -20.41677171 194.60762653 -20.33570862 189.17559814 C-20.33700971 187.54371643 -20.34136888 185.91183473 -20.34854126 184.27996826 C-20.3590624 179.86418716 -20.32622408 175.44969213 -20.2849133 171.03413129 C-20.24846868 166.40325977 -20.25034617 161.77239489 -20.24755859 157.1414032 C-20.23742954 149.36465532 -20.20126884 141.58838987 -20.14723206 133.81182861 C-20.07810051 123.84718512 -20.05032035 113.88288674 -20.03624058 103.91803074 C-20.02393077 95.3308925 -19.99420107 86.74382766 -19.9608562 78.15674853 C-19.95072273 75.40644328 -19.94264132 72.65613704 -19.93470955 69.90582466 C-19.92096401 65.57436066 -19.89636953 61.24308049 -19.86356163 56.91172028 C-19.85297885 55.32714382 -19.84564992 53.74254157 -19.84191132 52.15793419 C-19.81255206 41.14539497 -19.69248915 31.99728638 -13.4467926 22.52105713 C-9.76958728 16.63817687 -8.62492409 11.86214809 -8.6421051 4.81793213 C-8.35410223 -0.70494644 -4.59025991 0.03108259 0 0 Z M-0.5092926 8.27105713 C-1.1692926 10.91105713 -1.8292926 13.55105713 -2.5092926 16.27105713 C-3.17595927 17.60439046 -3.84262594 18.9377238 -4.5092926 20.27105713 C-4.5092926 21.59105713 -4.5092926 22.91105713 -4.5092926 24.27105713 C-5.4992926 24.60105713 -6.4892926 24.93105713 -7.5092926 25.27105713 C-13.99276426 32.3656936 -13.20538131 41.59219865 -13.12452698 50.55938721 C-13.12803255 52.19952976 -13.13369603 53.83966889 -13.14134216 55.47979736 C-13.15553164 59.91143803 -13.1385898 64.34245392 -13.11505699 68.77403474 C-13.09488972 73.41795206 -13.10083031 78.06184493 -13.10316467 82.70579529 C-13.10311119 90.497429 -13.08340196 98.28881947 -13.05128479 106.0803833 C-13.01433119 115.0890779 -13.00561903 124.09745479 -13.0125823 133.1062153 C-13.01888414 141.78005373 -13.0081431 150.45378326 -12.98861694 159.12759972 C-12.98044165 162.81691731 -12.97773359 166.50617925 -12.97930908 170.19550514 C-12.98018718 174.53520615 -12.96599227 178.87460458 -12.94008255 183.21422577 C-12.93291449 184.80735749 -12.93084021 186.40052139 -12.93420029 187.9936657 C-12.93790904 190.16631833 -12.92319048 192.33808487 -12.90370178 194.51063538 C-12.89997307 195.72677426 -12.89624435 196.94291315 -12.89240265 198.19590473 C-12.47954266 201.50985433 -11.87093048 202.94317708 -9.5092926 205.27105713 C-8.8492926 205.27105713 -8.1892926 205.27105713 -7.5092926 205.27105713 C-7.5092926 206.26105713 -7.5092926 207.25105713 -7.5092926 208.27105713 C-6.3955426 208.51855713 -5.2817926 208.76605713 -4.1342926 209.02105713 C-0.5092926 210.27105713 -0.5092926 210.27105713 0.8657074 212.33355713 C1.0719574 212.97293213 1.2782074 213.61230713 1.4907074 214.27105713 C3.5405988 216.32094853 7.7309364 215.68072174 10.54930115 215.81011963 C11.4232402 215.85133942 12.29717926 215.8925592 13.19760132 215.93502808 C25.5669932 216.46283275 37.94509782 216.56779893 50.32395935 216.62115479 C53.17420565 216.63470182 56.02377079 216.6629966 58.87376404 216.70318604 C62.36579753 216.75234108 65.85719718 216.7772429 69.34956169 216.78438187 C71.30350496 216.79431738 73.25727633 216.82853396 75.2109375 216.8631897 C76.3874437 216.86033966 77.56394989 216.85748962 78.77610779 216.85455322 C80.3277639 216.8666835 80.3277639 216.8666835 81.9107666 216.87905884 C84.71854136 216.51781373 84.71854136 216.51781373 86.21090698 213.84054565 C86.84440819 212.56864883 86.84440819 212.56864883 87.4907074 211.27105713 C89.68211365 209.57574463 89.68211365 209.57574463 92.0532074 208.14605713 C95.13631435 206.27290512 96.43986842 205.3473156 98.4907074 202.27105713 C98.81130002 199.21874735 98.81130002 199.21874735 98.78504944 195.67126465 C98.79240281 194.99733162 98.79975619 194.32339859 98.8073324 193.62904334 C98.8293986 191.36547814 98.83709241 189.1020966 98.8447113 186.83843994 C98.85724217 185.21703001 98.87053591 183.59562581 98.88453674 181.97422791 C98.92663675 176.64092004 98.94735599 171.30761101 98.9672699 165.97418213 C98.97536694 164.13482351 98.98360085 162.29546549 98.99197006 160.45610809 C99.0300924 151.80580191 99.0585399 143.15552986 99.075194 134.5051558 C99.09469027 124.5441435 99.14719147 114.58402588 99.22819579 104.62332845 C99.28873744 96.9118374 99.31815304 89.20060095 99.32475603 81.48887706 C99.32943607 76.88985809 99.34707331 72.29179365 99.39767838 67.69303131 C99.44463287 63.35550537 99.45255423 59.01954857 99.43215561 54.68183327 C99.43117371 53.10132148 99.44355174 51.52072736 99.4712677 49.9404583 C99.66687177 38.11271091 96.85981569 30.22785701 90.4907074 20.27105713 C89.8307074 20.27105713 89.1707074 20.27105713 88.4907074 20.27105713 C87.5007074 14.33105713 87.5007074 14.33105713 86.4907074 8.27105713 C57.7807074 8.27105713 29.0707074 8.27105713 -0.5092926 8.27105713 Z " fill="#151617" transform="translate(45.50929260253906,12.72894287109375)"/>
<path d="M0 0 C0.5775 0.45375 1.155 0.9075 1.75 1.375 C3.7800333 2.84113516 5.73539843 3.94857784 8 5 C8.09343498 27.06158156 8.16397515 49.1231305 8.20724869 71.18486977 C8.22787527 81.42848957 8.25599775 91.67198644 8.30175781 101.91552734 C8.34162257 110.84364128 8.36743212 119.77166619 8.37635398 128.69986665 C8.38156933 133.4274608 8.39382934 138.15480025 8.42292023 142.88231277 C8.4500836 147.33267283 8.45844313 151.78267343 8.45243073 156.23310852 C8.45353055 157.86574126 8.46147907 159.4983861 8.4768219 161.13094711 C8.49676514 163.36260976 8.49192459 165.59292065 8.48101807 167.82461548 C8.48470524 169.07272318 8.48839241 170.32083088 8.49219131 171.60676003 C7.75632463 176.67993419 5.38871489 179.75746562 1.625 183.125 C-0.21818128 184.44155806 -2.09723342 185.70862991 -4 186.9375 C-7.07472739 188.85339501 -7.07472739 188.85339501 -9.16633606 191.59144592 C-12.83750534 194.71186173 -15.73684674 194.68759657 -20.33862305 194.59936523 C-21.16519409 194.60330795 -21.99176514 194.60725067 -22.84338379 194.61131287 C-25.56678487 194.61800881 -28.28849802 194.58889807 -31.01171875 194.55859375 C-32.90549901 194.55434288 -34.79928449 194.55201499 -36.69306946 194.55152893 C-40.65670472 194.54536833 -44.61977379 194.52268682 -48.58325195 194.48706055 C-53.67125279 194.44169568 -58.75874229 194.42702957 -63.84692669 194.42332363 C-67.75449188 194.41890248 -71.66194911 194.40361336 -75.56946754 194.3844471 C-77.4462069 194.37555163 -79.32295781 194.36882809 -81.19971275 194.36428642 C-83.81652739 194.35527542 -86.43287234 194.33291502 -89.04956055 194.30639648 C-89.82932755 194.30573181 -90.60909454 194.30506714 -91.41249084 194.30438232 C-96.77082246 194.22917754 -96.77082246 194.22917754 -99 192 C-99 191.01 -99 190.02 -99 189 C-98.34 189 -97.68 189 -97 189 C-97 188.34 -97 187.68 -97 187 C-69.28 187 -41.56 187 -13 187 C-12.67 185.68 -12.34 184.36 -12 183 C-9.4133088 180.63502518 -6.68394966 178.7933517 -3.75 176.875 C-0.94016618 175.28622262 -0.94016618 175.28622262 0 173 C0.0946598 170.73220139 0.1218969 168.46151468 0.12025452 166.19174194 C0.12110894 165.48357854 0.12196337 164.77541513 0.12284368 164.04579222 C0.12449724 161.66119943 0.11897913 159.27667621 0.11352539 156.89208984 C0.11324347 155.18738303 0.11340136 153.4826761 0.1139679 151.77796936 C0.11425567 147.1397954 0.10836223 142.50164712 0.10139394 137.86347914 C0.09515701 133.02012225 0.09455633 128.17676482 0.09336853 123.33340454 C0.09025622 114.15718832 0.08204417 104.98098396 0.07201904 95.80477297 C0.0608548 85.35994507 0.05534667 74.91511661 0.05032361 64.47028422 C0.03986149 42.98018285 0.02226397 21.49009217 0 0 Z " fill="#121315" transform="translate(143,42)"/>
<path d="M0 0 C2.625 0.375 2.625 0.375 5 1 C5.23368515 18.49795114 5.40998174 35.99541489 5.51812172 53.49456978 C5.56966988 61.61995756 5.63993352 69.74437545 5.75439453 77.86914062 C5.85412175 84.95144035 5.91859384 92.03303774 5.94088495 99.11602008 C5.95391503 102.86628798 5.98448779 106.61454685 6.05730057 110.36417007 C6.13797027 114.55243934 6.1398965 118.73722595 6.13525391 122.92626953 C6.18918304 124.7874366 6.18918304 124.7874366 6.24420166 126.686203 C6.20344837 130.07817507 6.08530327 132.78413221 5 136 C2.61154547 138.20904996 0.39231133 139.5034168 -2.55944252 140.85415459 C-5.03789968 141.8470007 -5.03789968 141.8470007 -6.65181541 143.66768074 C-7.09671633 144.1073461 -7.54161724 144.54701145 -8 145 C-10.6875 144.6875 -10.6875 144.6875 -13 144 C-13.4375 141.875 -13.4375 141.875 -13 139 C-10.95412506 136.59341984 -8.72020688 134.60890285 -6 133 C-4.68 133 -3.36 133 -2 133 C-2.00184359 132.32670465 -2.00368717 131.65340931 -2.00558662 130.95971107 C-2.04971175 114.59407872 -2.08283026 98.22846516 -2.10362434 81.86278725 C-2.1139469 73.94854219 -2.12802586 66.03433679 -2.15087891 58.12011719 C-2.17078289 51.22390924 -2.18370931 44.32772999 -2.18817699 37.43149412 C-2.19078946 33.77833527 -2.19695007 30.12525858 -2.21146011 26.47212601 C-2.2275084 22.39886038 -2.22798162 18.32573852 -2.22705078 14.25244141 C-2.23424133 13.03468521 -2.24143188 11.81692902 -2.24884033 10.56227112 C-2.246091 9.45726761 -2.24334167 8.3522641 -2.24050903 7.21377563 C-2.24235262 6.24958017 -2.24419621 5.28538471 -2.24609566 4.29197121 C-2 2 -2 2 0 0 Z " fill="#17181A" transform="translate(134,78)"/>
<path d="M0 0 C1.32 0.33 2.64 0.66 4 1 C4 56.44 4 111.88 4 169 C4.99 169.33 5.98 169.66 7 170 C6.34 171.65 5.68 173.3 5 175 C2.44137822 174.64708665 1.22932688 174.23053444 -0.61332989 172.37817478 C-2.47540527 169.18466777 -2.37472753 166.88926006 -2.3742218 163.19920349 C-2.38018341 162.17432212 -2.38018341 162.17432212 -2.38626546 161.12873608 C-2.39588728 158.84008806 -2.3840716 156.55205838 -2.37231445 154.26342773 C-2.37474244 152.62240366 -2.37846183 150.98138106 -2.38337708 149.34036255 C-2.39278802 144.88384964 -2.38335935 140.42755628 -2.37004495 135.97106051 C-2.35873656 131.31062708 -2.36283743 126.65020456 -2.36479187 121.98976135 C-2.36567495 114.16411752 -2.35459077 106.33856029 -2.33618164 98.51293945 C-2.31500642 89.45950259 -2.31150563 80.40619255 -2.3177436 71.35273594 C-2.32343366 62.64956448 -2.3177963 53.94643778 -2.30657005 45.24327278 C-2.30192007 41.53638953 -2.30105193 37.82953362 -2.3031559 34.12264824 C-2.30503638 29.76010934 -2.2969535 25.39769995 -2.2810955 21.03519058 C-2.27684491 19.43195824 -2.27600729 17.82871278 -2.27878571 16.22547722 C-2.28199705 14.0414459 -2.27295258 11.85780412 -2.26069641 9.67381287 C-2.25864354 8.45025809 -2.25659067 7.22670332 -2.25447559 5.96607113 C-2 3 -2 3 0 0 Z " fill="#0F0F11" transform="translate(28,48)"/>
<path d="M0 0 C0.33 0 0.66 0 1 0 C1.00219984 1.27001799 1.00219984 1.27001799 1.00444412 2.5656929 C1.04147463 23.15480725 1.10043934 43.74375648 1.18390274 64.33273697 C1.22373433 74.28937302 1.25610586 84.24592956 1.27099609 94.20263672 C1.28399129 102.87958495 1.31090123 111.55635853 1.35461307 120.23320842 C1.377276 124.82877476 1.3929078 129.42412532 1.39188385 134.0197525 C1.39114008 138.34381253 1.40897631 142.66739467 1.44116783 146.9913311 C1.44969842 148.57961028 1.45139541 150.16794288 1.44580269 151.75623512 C1.43918824 153.92303346 1.45701858 156.08829985 1.48101807 158.25494385 C1.48654882 160.0745632 1.48654882 160.0745632 1.49219131 161.93094254 C2.09984505 165.60343631 3.294102 166.57139378 6 169 C6 169.99 6 170.98 6 172 C7.6396875 172.37125 7.6396875 172.37125 9.3125 172.75 C13 174 13 174 14.21582031 176.03344727 C15.96850798 178.37442845 15.96850798 178.37442845 19.56933594 178.58959961 C21.12365456 178.65206578 22.67897176 178.69184027 24.234375 178.71484375 C25.10052429 178.74263412 25.96667358 178.7704245 26.85906982 178.79905701 C29.90589208 178.88869165 32.95235192 178.94553299 36 179 C38.42122851 179.05334188 40.84245226 179.10690047 43.26367188 179.16064453 C50.5710975 179.31204019 57.87882412 179.42657654 65.18701172 179.53222656 C68.67419312 179.5833994 72.16131131 179.63857373 75.6484375 179.69335938 C82.43223649 179.79937469 89.21609313 179.90113443 96 180 C96 180.33 96 180.66 96 181 C85.60384149 181.02313662 75.20768907 181.04092185 64.81151009 181.05181217 C59.98451963 181.0570381 55.15754675 181.06413052 50.33056641 181.07543945 C45.67514752 181.0862786 41.01974556 181.09227903 36.36431503 181.09487724 C34.58525196 181.09672963 32.80618984 181.1003467 31.02713394 181.10573006 C28.54166893 181.11295409 26.05627454 181.11399036 23.57080078 181.11352539 C22.82993225 181.11712067 22.08906372 181.12071594 21.32574463 181.12442017 C16.22810432 181.11405216 16.22810432 181.11405216 14 180 C14 180.66 14 181.32 14 182 C13.34 182 12.68 182 12 182 C11.505 182.99 11.505 182.99 11 184 C10.649375 183.5875 10.29875 183.175 9.9375 182.75 C8.14558162 181.13149308 6.60983972 180.19101892 4.5 179.0625 C1.56057102 177.45296067 -0.22914204 175.91670722 -2 173 C-0.02 172.01 -0.02 172.01 2 171 C2 170.34 2 169.68 2 169 C1.34 168.67 0.68 168.34 0 168 C0 112.56 0 57.12 0 0 Z " fill="#4D4D4E" transform="translate(32,49)"/>
<path d="M0 0 C0.33 0 0.66 0 1 0 C1 4.29 1 8.58 1 13 C1.66 13 2.32 13 3 13 C4.33819498 15.6226232 5.6707151 18.24786599 7 20.875 C7.3815625 21.62136719 7.763125 22.36773437 8.15625 23.13671875 C8.5171875 23.85214844 8.878125 24.56757812 9.25 25.3046875 C9.75273437 26.2944458 9.75273437 26.2944458 10.265625 27.30419922 C11 29 11 29 11 31 C10.195625 30.835 9.39125 30.67 8.5625 30.5 C6.2715557 29.96808161 6.2715557 29.96808161 5 30 C4.505 31.485 4.505 31.485 4 33 C2.82823482 30.87767021 1.66245215 28.75242209 0.5 26.625 C0.16613281 26.02171875 -0.16773438 25.4184375 -0.51171875 24.796875 C-3 20.2265625 -3 20.2265625 -3 18 C-3.66 18 -4.32 18 -5 18 C-6.70572284 13.52247755 -7 11.01632918 -7 6 C-35.71 6 -64.42 6 -94 6 C-94 7.98 -94 9.96 -94 12 C-94.33 12 -94.66 12 -95 12 C-95.04241723 9.66705225 -95.04092937 7.33297433 -95 5 C-93.17761338 3.17761338 -90.65243917 3.88002304 -88.2275238 3.87557983 C-87.39890335 3.87917511 -86.5702829 3.88277039 -85.71655273 3.88647461 C-84.41423203 3.88625557 -84.41423203 3.88625557 -83.08560181 3.8860321 C-80.20157414 3.88673154 -77.3176102 3.89452537 -74.43359375 3.90234375 C-72.43962133 3.90420782 -70.44564845 3.90563177 -68.45167542 3.90663147 C-63.19254298 3.91045752 -57.93343797 3.92028855 -52.67431641 3.93133545 C-47.31217825 3.9415477 -41.95003569 3.94612869 -36.58789062 3.95117188 C-26.05858167 3.96191074 -15.52929311 3.9789882 -5 4 C-5 7.3 -5 10.6 -5 14 C-2.66924071 13.04134491 -2.66924071 13.04134491 -1 10 C-0.54398739 7.49103314 -0.54398739 7.49103314 -0.375 4.8125 C-0.30023438 3.91144531 -0.22546875 3.01039062 -0.1484375 2.08203125 C-0.07496094 1.05142578 -0.07496094 1.05142578 0 0 Z " fill="#4E504F" transform="translate(139,15)"/>
<path d="M0 0 C2.25 -0.375 2.25 -0.375 5 0 C6.68235254 2.00796916 7.75904242 3.72273398 9 6 C9.52207031 6.87011719 10.04414063 7.74023438 10.58203125 8.63671875 C13.54188295 13.71768197 15.38896145 16.98877759 15 23 C13.1875 23.6875 13.1875 23.6875 11 24 C8.10986351 21.71913553 6.64201026 18.77534927 4.9375 15.5625 C4.43089844 14.61503906 3.92429687 13.66757812 3.40234375 12.69140625 C2.93957031 11.80324219 2.47679688 10.91507813 2 10 C1.61199219 9.29230469 1.22398438 8.58460937 0.82421875 7.85546875 C-0.34699216 5.21885652 -0.1292878 2.84433158 0 0 Z " fill="#1D1E1F" transform="translate(123,31)"/>
<path d="M0 0 C0.33 0.99 0.66 1.98 1 3 C1.66 3 2.32 3 3 3 C3 2.34 3 1.68 3 1 C3.99 0.67 4.98 0.34 6 0 C6.4375 2.625 6.4375 2.625 6 6 C2.13635572 10.56917933 -3.67735596 14.33867798 -9 17 C-9.33 16.01 -9.66 15.02 -10 14 C-10.99 14 -11.98 14 -13 14 C-12.67970296 11.01056095 -12.0719706 10.06580169 -9.8125 8 C-7.82053973 6.58349492 -5.79576885 5.2126181 -3.75 3.875 C-0.94016618 2.28622262 -0.94016618 2.28622262 0 0 Z " fill="#151618" transform="translate(143,215)"/>
<path d="M0 0 C2.62689244 2.62689244 3.99893642 5.70821274 5.625 9 C6.11226562 9.96292969 6.11226562 9.96292969 6.609375 10.9453125 C9 15.74665179 9 15.74665179 9 18 C8.195625 17.835 7.39125 17.67 6.5625 17.5 C4.2715557 16.96808161 4.2715557 16.96808161 3 17 C2.67 17.99 2.34 18.98 2 20 C-2 13.25 -2 13.25 -2 11 C-1.01 11 -0.02 11 1 11 C0.835 9.9275 0.67 8.855 0.5 7.75 C0 4 0 4 0 0 Z " fill="#212224" transform="translate(141,28)"/>
<path d="M0 0 C0.58265625 0.21914062 1.1653125 0.43828125 1.765625 0.6640625 C0.775625 2.1490625 0.775625 2.1490625 -0.234375 3.6640625 C-0.37875 4.4890625 -0.523125 5.3140625 -0.671875 6.1640625 C-1.31117582 9.00539949 -1.78370247 10.08863016 -4.234375 11.6640625 C-6.921875 11.3515625 -6.921875 11.3515625 -9.234375 10.6640625 C-9.671875 8.5390625 -9.671875 8.5390625 -9.234375 5.6640625 C-4.01595085 -0.60379681 -4.01595085 -0.60379681 0 0 Z " fill="#242626" transform="translate(130.234375,211.3359375)"/>
<path d="M0 0 C0.66 0 1.32 0 2 0 C2.16802051 1.45817797 2.33437143 2.9165484 2.5 4.375 C2.5928125 5.18710937 2.685625 5.99921875 2.78125 6.8359375 C3 9 3 9 3 11 C1.125 10.8125 1.125 10.8125 -1 10 C-2.3125 7.625 -2.3125 7.625 -3 5 C-2.67 4.01 -2.34 3.02 -2 2 C-1.34 2 -0.68 2 0 2 C0 1.34 0 0.68 0 0 Z " fill="#0C0D0F" transform="translate(139,28)"/>
<path d="M0 0 C0.33 0 0.66 0 1 0 C1.02693575 2.12493141 1.04636628 4.24995912 1.0625 6.375 C1.07410156 7.55835938 1.08570313 8.74171875 1.09765625 9.9609375 C1 13 1 13 0 15 C-0.66 15 -1.32 15 -2 15 C-2 15.99 -2 16.98 -2 18 C-2.99 18 -3.98 18 -5 18 C-6.59138085 13.82262526 -7.21278058 10.46839215 -7 6 C-6.67 6 -6.34 6 -6 6 C-5.67 8.64 -5.34 11.28 -5 14 C-2.66924071 13.04134491 -2.66924071 13.04134491 -1 10 C-0.54398739 7.49103314 -0.54398739 7.49103314 -0.375 4.8125 C-0.30023438 3.91144531 -0.22546875 3.01039062 -0.1484375 2.08203125 C-0.09945312 1.39496094 -0.05046875 0.70789062 0 0 Z " fill="#373739" transform="translate(139,15)"/>
<path d="M0 0 C0.99 0 1.98 0 3 0 C3 0.66 3 1.32 3 2 C3.99 2 4.98 2 6 2 C6 3.98 6 5.96 6 8 C4.68 8.33 3.36 8.66 2 9 C1.01 6.36 0.02 3.72 -1 1 C-0.67 0.67 -0.34 0.34 0 0 Z " fill="#101010" transform="translate(132,46)"/>
<path d="M0 0 C2.475 0.99 2.475 0.99 5 2 C4.360625 2.28875 3.72125 2.5775 3.0625 2.875 C0.84793921 3.82823451 0.84793921 3.82823451 0 6 C1.32 6 2.64 6 4 6 C4.66 7.65 5.32 9.3 6 11 C0.8641579 9.12344231 -1.84442256 7.67025461 -5 3 C-4.360625 2.690625 -3.72125 2.38125 -3.0625 2.0625 C-1.06389179 1.1654837 -1.06389179 1.1654837 0 0 Z " fill="#141517" transform="translate(35,219)"/>
<path d="M0 0 C0.33 0.99 0.66 1.98 1 3 C1.99 3 2.98 3 4 3 C4.33 2.01 4.66 1.02 5 0 C5.66 0.33 6.32 0.66 7 1 C6.33333333 3.66666667 5.66666667 6.33333333 5 9 C4.34 9 3.68 9 3 9 C3 7.35 3 5.7 3 4 C-0.11785113 4.64644661 -0.11785113 4.64644661 -1 7 C-1.66 7 -2.32 7 -3 7 C-1.125 1.125 -1.125 1.125 0 0 Z " fill="#303032" transform="translate(36,28)"/>
<path d="M0 0 C2.25 -0.3125 2.25 -0.3125 5 0 C7.10657692 2.22360897 8.63261434 4.26522868 10 7 C8.68 7.33 7.36 7.66 6 8 C5.5875 7.360625 5.175 6.72125 4.75 6.0625 C2.82189513 3.79009069 1.88575819 3.39803561 -1 3 C-0.67 2.01 -0.34 1.02 0 0 Z " fill="#060707" transform="translate(35,222)"/>
<path d="M0 0 C2.97246802 2.54782974 4.41535288 5.45340883 6 9 C6 9.66 6 10.32 6 11 C4.35 10.67 2.7 10.34 1 10 C1.33 9.01 1.66 8.02 2 7 C1.40206327 4.64811553 0.74118205 2.31074405 0 0 Z " fill="#37383A" transform="translate(144,35)"/>
<path d="M0 0 C0 0.66 0 1.32 0 2 C-1.32 2.33 -2.64 2.66 -4 3 C-4 3.66 -4 4.32 -4 5 C-4.66 5 -5.32 5 -6 5 C-6 4.34 -6 3.68 -6 3 C-7.32 3.33 -8.64 3.66 -10 4 C-8 1 -8 1 -5.5625 0.3125 C-3 0 -3 0 0 0 Z " fill="#1C1D1F" transform="translate(142,221)"/>
<path d="M0 0 C1.9375 0.3125 1.9375 0.3125 4 1 C4.33 1.99 4.66 2.98 5 4 C4.01 4.66 3.02 5.32 2 6 C2 5.34 2 4.68 2 4 C1.01 3.67 0.02 3.34 -1 3 C-0.67 2.01 -0.34 1.02 0 0 Z " fill="#0E100F" transform="translate(123,217)"/>
<path d="M0 0 C2.31 0.33 4.62 0.66 7 1 C7.66 2.65 8.32 4.3 9 6 C2.25 3.375 2.25 3.375 0 0 Z " fill="#494B4A" transform="translate(32,224)"/>
<path d="M0 0 C-0.8125 1.9375 -0.8125 1.9375 -2 4 C-2.99 4.33 -3.98 4.66 -5 5 C-5.66 4.34 -6.32 3.68 -7 3 C-2.25 0 -2.25 0 0 0 Z " fill="#121315" transform="translate(147,221)"/>
<path d="M0 0 C0.66 0.33 1.32 0.66 2 1 C0.73058503 4.91402949 -0.51167694 6.79072873 -4 9 C-2.94124926 5.59687262 -1.99097846 2.98646769 0 0 Z " fill="#444545" transform="translate(32,35)"/>
<path d="M0 0 C2.475 0.495 2.475 0.495 5 1 C5.33 1.99 5.66 2.98 6 4 C5.01 4 4.02 4 3 4 C2.67 4.66 2.34 5.32 2 6 C1.34 4.02 0.68 2.04 0 0 Z " fill="#232525" transform="translate(40,222)"/>
</svg>
